<svg width="536" height="186" viewBox="0 0 536 186" fill="none" xmlns="http://www.w3.org/2000/svg">
<path d="M1 146.15C38.4335 130.362 82.5283 109.481 130.871 109.481C174.767 109.481 200.794 91.6096 205.211 88.3213C205.648 87.9957 206.19 87.8429 206.731 87.9106L317.884 101.805L451.73 96.3047L530.364 113.874C533.941 114.673 535.445 118.859 533.062 121.645C520.253 136.621 484.897 174.528 451.73 179C367.884 190.304 317.555 183.314 231.551 184.5C125.533 185.962 141.346 169.758 82.5283 173.781C23.7103 177.805 1 146.15 1 146.15Z" fill="#EBEDF5"/>
<path d="M116.929 149.877C154.795 149.877 185.492 147.539 185.492 144.654C185.492 141.769 154.795 139.43 116.929 139.43C79.0633 139.43 48.3669 141.769 48.3669 144.654C48.3669 147.539 79.0633 149.877 116.929 149.877Z" fill="#E1E3EB"/>
<path d="M163.531 146.615H185.737" stroke="#CECCCC" stroke-width="0.853884" stroke-miterlimit="10" stroke-linecap="round"/>
<path d="M163.596 74.5221C163.921 46.2698 164.408 19.6793 164.571 17.1109C165.22 11.6719 164.246 6.38405 172.365 6.23297C175.612 6.08189 177.398 7.59271 178.373 10.6144C179.834 15.1468 179.509 23.0031 179.672 34.4854C179.672 37.507 179.834 42.3416 180.159 48.2338C180.321 51.5576 180.483 55.0325 180.646 58.9607C180.808 63.3421 180.971 68.1767 181.295 73.0113C182.757 104.89 184.705 143.416 184.056 144.624C183.406 145.833 179.347 146.891 174.8 147.193C169.929 147.495 164.733 146.891 163.596 144.624C163.109 143.718 163.272 114.106 163.596 83.5871V74.5221Z" fill="#5EA2A1"/>
<path d="M147.966 70.4129C147.642 59.2492 147.966 41.452 147.966 41.452C147.966 41.452 148.776 32.8769 143.59 32.2297C137.268 31.5826 136.458 39.1868 135.81 50.6742C135.161 62.1615 132.892 89.9899 137.106 92.7404C141.32 95.4908 153.801 94.6819 158.663 94.6819C160.608 94.6819 162.391 94.6819 163.688 94.6819L164.984 78.8262L149.262 79.4733C149.262 79.6351 148.29 81.5766 147.966 70.4129Z" fill="#5EA2A1"/>
<path d="M201.135 66.6868C200.325 58.2735 199.028 30.7687 198.056 24.7823C197.083 18.796 188.006 18.6342 187.844 26.2385C187.682 33.8428 188.655 61.9948 188.655 61.9948L179.578 62.3184L180.713 77.3651C185.575 77.3651 194.814 76.718 196.759 75.7472C199.352 74.4529 201.621 72.8349 201.135 66.6868Z" fill="#5EA2A1"/>
<path d="M171.309 7.5293C171.309 7.5293 170.348 40.9023 170.829 81.9767C171.309 123.051 172.431 148.572 172.431 148.572C172.431 148.572 163.459 147.515 163.299 144.645C163.138 141.776 165.061 50.7179 164.74 49.8118C164.42 48.9058 163.779 19.61 164.58 15.6838C165.381 11.7575 166.022 9.3414 171.309 7.5293Z" fill="#83C4C3"/>
<path d="M188 62.8039C190.107 62.9657 192.376 62.9657 194.483 62.8039C194.321 55.3614 193.997 43.8741 193.835 37.7259C193.511 25.1061 193.349 20.4141 193.349 20.4141C185.893 21.223 187.838 35.1372 187.838 42.0944C187.838 45.9774 188 55.685 188 62.8039Z" fill="#9BDADA"/>
<path d="M140.679 33.8438C140.03 38.8593 139.868 43.8749 139.868 48.8905C139.706 60.5396 143.92 93.7072 141.489 94.3544C139.058 95.0016 135.33 90.3096 135.33 90.3096C135.33 90.3096 135.168 52.2882 135.33 45.6547C135.492 39.0211 136.302 34.4909 140.679 33.8438Z" fill="#9BDADA"/>
<path d="M181.286 76.7441C182.752 106.935 184.707 143.422 184.055 144.71C182.752 147.285 165.488 148.859 163.533 144.71C163.208 143.851 163.208 119.097 163.533 92.3405" stroke="#ABAEBF" stroke-width="1.41806" stroke-miterlimit="10" stroke-linecap="round"/>
<path d="M164.016 79.1462C164.34 48.8908 164.826 20.4152 164.988 17.6647C165.636 11.8402 164.664 6.17742 172.768 6.01563C180.872 5.85384 179.738 15.7232 179.9 36.271C179.9 41.4484 180.224 50.9942 180.71 62.4815" stroke="#ABAEBF" stroke-width="1.41806" stroke-miterlimit="10" stroke-linecap="round"/>
<path d="M163.852 94.8362H158.828C153.803 94.6744 141.485 95.6452 137.271 92.8947C133.057 90.1442 135.164 62.3158 135.974 50.8285C136.785 39.3411 137.433 31.7369 143.754 32.384C148.941 32.8694 148.13 41.6063 148.13 41.6063C148.13 41.6063 147.806 59.4035 148.13 70.5672C148.455 81.7309 149.427 79.7894 149.427 79.7894L166.446 79.1423" stroke="#ABAEBF" stroke-width="1.41806" stroke-miterlimit="10" stroke-linecap="round"/>
<path d="M181.523 77.3668C186.71 77.205 194.814 76.7196 196.597 75.7488C199.352 74.2927 201.621 72.6748 201.135 66.5266C200.325 58.1134 199.028 30.6085 198.056 24.6222C197.083 18.6358 188.006 18.474 187.844 26.0783C187.682 33.6826 188.655 61.8346 188.655 61.8346L179.578 62.1582" stroke="#ABAEBF" stroke-width="1.41806" stroke-miterlimit="10" stroke-linecap="round"/>
<path d="M169.039 1.48538L171.794 4.39766L172.281 1" stroke="#ABAEBF" stroke-width="1.41806" stroke-miterlimit="10" stroke-linecap="round"/>
<path d="M175.039 2.29517L171.797 6.01641" stroke="#ABAEBF" stroke-width="1.41806" stroke-miterlimit="10" stroke-linecap="round"/>
<path d="M139.219 27.8604L141.974 30.9344L142.46 27.375" stroke="#ABAEBF" stroke-width="1.41806" stroke-miterlimit="10" stroke-linecap="round"/>
<path d="M145.218 28.6641L141.977 32.3853" stroke="#ABAEBF" stroke-width="1.41806" stroke-miterlimit="10" stroke-linecap="round"/>
<path d="M195.462 16.8545L192.707 19.605L192.383 16.3691" stroke="#ABAEBF" stroke-width="1.41806" stroke-miterlimit="10" stroke-linecap="round"/>
<path d="M189.461 17.8301L192.378 20.4188" stroke="#ABAEBF" stroke-width="1.41806" stroke-miterlimit="10" stroke-linecap="round"/>
<path d="M139.383 39.0202V41.2853C139.383 41.7707 139.869 41.9325 140.193 41.9325C140.517 41.9325 140.842 41.6089 140.842 41.2853V39.0202C140.842 38.5348 140.355 38.373 140.031 38.373C139.707 38.373 139.545 38.6966 139.383 39.0202Z" fill="white"/>
<path d="M138.727 48.571V54.7191C138.727 55.2045 139.213 55.3663 139.537 55.3663C139.861 55.3663 140.185 55.0427 140.185 54.7191V48.571C140.185 48.0856 139.699 47.9238 139.375 47.9238C139.051 47.9238 138.889 48.2474 138.727 48.571Z" fill="white"/>
<path d="M138.732 61.5132L138.57 67.6614C138.57 68.6321 140.029 68.6321 140.029 67.6614L140.353 61.5132C140.353 60.5425 138.894 60.5425 138.732 61.5132Z" fill="white"/>
<path d="M137.922 74.9382V78.1741C137.922 78.6594 138.408 78.8212 138.732 78.8212C139.056 78.8212 139.381 78.4976 139.381 78.1741V74.9382C139.381 74.4528 138.894 74.291 138.57 74.291C138.246 74.4528 137.922 74.6146 137.922 74.9382Z" fill="white"/>
<path d="M191.406 24.2976V28.0188C191.406 28.5042 191.892 28.666 192.217 28.666C192.541 28.666 192.865 28.3424 192.865 28.0188C192.865 27.5334 192.379 27.3716 192.055 27.3716C191.73 27.3716 191.406 27.6952 191.406 28.0188C191.406 28.5042 191.892 28.666 192.217 28.666C192.541 28.666 192.865 28.3424 192.865 28.0188V24.2976C192.865 23.8122 192.379 23.6504 192.055 23.6504C191.73 23.6504 191.406 23.974 191.406 24.2976Z" fill="white"/>
<path d="M189.953 34.653V38.0507C189.953 38.5361 190.439 38.6979 190.764 38.6979C191.088 38.6979 191.412 38.3743 191.412 38.0507V34.653C191.412 34.1677 190.926 34.0059 190.601 34.0059C190.277 34.1677 189.953 34.3294 189.953 34.653Z" fill="white"/>
<path d="M191.891 38.0476V41.7688C191.891 42.2542 192.377 42.416 192.701 42.416C193.025 42.416 193.349 42.0924 193.349 41.7688V38.0476C193.349 37.5622 192.863 37.4004 192.539 37.4004C192.215 37.4004 192.053 37.724 191.891 38.0476Z" fill="white"/>
<path d="M191.57 48.2429V53.2585C191.57 53.7438 192.057 53.9056 192.381 53.9056C192.705 53.9056 193.029 53.582 193.029 53.2585V48.2429C193.029 47.7575 192.543 47.5957 192.219 47.5957C191.894 47.5957 191.57 47.9193 191.57 48.2429Z" fill="white"/>
<path d="M191.894 60.2171L192.056 61.5114C192.218 62.4821 193.677 61.9968 193.515 61.1878L193.353 59.8935C193.353 58.7609 191.732 59.2463 191.894 60.2171Z" fill="white"/>
<path d="M189.461 28.3444V32.3893C189.461 32.8746 189.947 33.0364 190.271 33.0364C190.596 33.0364 190.92 32.7128 190.92 32.3893V28.3444C190.92 27.8591 190.433 27.6973 190.109 27.6973C189.785 27.8591 189.623 28.0208 189.461 28.3444Z" fill="white"/>
<path d="M169.367 14.1022V18.7942C169.367 19.2796 169.853 19.4414 170.178 19.4414C170.502 19.4414 170.826 19.1178 170.826 18.7942V14.1022C170.826 13.6169 170.34 13.4551 170.016 13.4551C169.691 13.4551 169.367 13.7787 169.367 14.1022Z" fill="white"/>
<path d="M170.984 26.403V34.1691C170.984 34.6545 171.471 34.8163 171.795 34.8163C172.119 34.8163 172.443 34.4927 172.443 34.1691V26.403C172.443 25.9177 171.957 25.7559 171.633 25.7559C171.309 25.7559 170.984 26.0794 170.984 26.403Z" fill="white"/>
<path d="M167.742 39.9929V45.6556C167.742 46.141 168.228 46.3028 168.553 46.3028C168.877 46.3028 169.201 45.9792 169.201 45.6556V39.9929C169.201 39.5075 168.715 39.3457 168.391 39.3457C168.066 39.3457 167.742 39.6693 167.742 39.9929Z" fill="white"/>
<path d="M167.742 58.9187V63.6107C167.742 64.096 168.228 64.2578 168.553 64.2578C168.877 64.2578 169.201 63.9342 169.201 63.6107V58.9187C169.201 58.4333 168.715 58.2715 168.391 58.2715C168.066 58.2715 167.742 58.5951 167.742 58.9187Z" fill="white"/>
<path d="M167.425 70.4058C167.425 70.8912 167.425 71.5384 167.425 72.0237C167.425 72.9945 168.884 72.9945 168.884 72.0237C168.884 71.5384 168.884 70.8912 168.884 70.4058C168.884 69.435 167.263 69.435 167.425 70.4058Z" fill="white"/>
<path d="M167.258 80.4421V92.253C167.258 92.7384 167.744 92.9002 168.068 92.9002C168.392 92.9002 168.717 92.5766 168.717 92.253V80.4421C168.717 79.9567 168.23 79.7949 167.906 79.7949C167.582 79.7949 167.42 80.1185 167.258 80.4421Z" fill="white"/>
<path d="M170.664 95.4839C170.988 99.367 171.15 103.25 170.988 107.295C170.988 108.266 172.447 108.266 172.447 107.295C172.609 103.412 172.447 99.367 172.123 95.4839C172.123 94.5132 170.664 94.5132 170.664 95.4839Z" fill="white"/>
<path d="M167.906 106.327V111.828C167.906 112.313 168.392 112.475 168.717 112.475C169.041 112.475 169.365 112.151 169.365 111.828V106.327C169.365 105.841 168.879 105.68 168.555 105.68C168.23 105.841 167.906 106.003 167.906 106.327Z" fill="white"/>
<path d="M167.586 122.995V134.32C167.586 134.806 168.072 134.968 168.396 134.968C168.721 134.968 169.045 134.644 169.045 134.32V122.995C169.045 122.509 168.558 122.348 168.234 122.348C167.91 122.348 167.586 122.671 167.586 122.995Z" fill="white"/>
<path d="M170.5 134.317V146.937C170.5 147.422 170.986 147.584 171.31 147.584C171.635 147.584 171.959 147.261 171.959 146.937V134.317C171.959 133.832 171.473 133.67 171.148 133.67C170.824 133.67 170.5 133.994 170.5 134.317Z" fill="white"/>
<path d="M367.544 145.86C389.906 145.86 408.033 144.492 408.033 142.804C408.033 141.116 389.906 139.748 367.544 139.748C345.182 139.748 327.055 141.116 327.055 142.804C327.055 144.492 345.182 145.86 367.544 145.86Z" fill="#E1E3EB"/>
<path d="M387.152 98.3796H392.649V103.488L393.412 103.502L393.445 102.594C393.813 92.6926 394.17 83.0629 394.17 77.1764L394.17 77.172C394.146 75.0838 394.107 73.1399 394.071 71.337C393.964 66.001 393.882 61.8989 394.285 58.9377C394.555 56.9613 395.034 55.5666 395.811 54.6663C396.569 53.7881 397.658 53.3295 399.283 53.3285C400.95 53.3753 402.1 53.6756 402.905 54.1409C403.701 54.601 404.188 55.2389 404.505 56.0239C404.827 56.8211 404.971 57.768 405.069 58.8379C405.104 59.2275 405.133 59.6383 405.164 60.0617C405.214 60.7751 405.268 61.5243 405.357 62.268C405.639 64.613 406.445 84.0845 407.109 103.217C407.441 112.776 407.737 122.239 407.915 129.418C408.003 133.008 408.063 136.026 408.082 138.198C408.092 139.284 408.091 140.157 408.08 140.783C408.074 141.096 408.065 141.344 408.054 141.525C408.048 141.616 408.042 141.686 408.036 141.736C408.032 141.769 408.029 141.786 408.028 141.794C408.027 141.797 408.027 141.798 408.027 141.798L408.026 141.801C407.653 143.002 406.597 143.791 405.084 144.243C403.573 144.695 401.676 144.785 399.769 144.633C397.866 144.482 395.982 144.091 394.511 143.602C393.775 143.357 393.152 143.09 392.685 142.823C392.221 142.557 391.964 142.319 391.866 142.143C391.861 142.121 391.848 142.054 391.835 141.916C391.821 141.759 391.81 141.547 391.804 141.28C391.79 140.747 391.791 140.013 391.806 139.104C391.835 137.287 391.918 134.783 392.037 131.802C392.239 126.707 392.546 120.23 392.867 113.432C392.922 112.276 392.977 111.111 393.032 109.942L393.051 109.542H392.651C390.659 109.542 388.059 109.542 385.769 109.448C384.624 109.401 383.563 109.331 382.697 109.226C381.814 109.119 381.188 108.982 380.875 108.825L380.875 108.825L380.862 108.819C379.831 108.352 378.871 107.819 378.198 106.844C377.528 105.874 377.107 104.409 377.292 102.003L377.292 102.003L377.293 101.995C377.452 99.2172 377.445 96.3721 377.438 93.6673C377.437 93.1332 377.436 92.6046 377.436 92.083C377.436 88.9093 377.484 86.0053 377.857 83.6739C378.205 81.5925 379.929 80.2234 382.001 80.3957C384.083 80.5689 385.805 82.482 385.634 84.527L385.633 84.5488L385.633 84.5707C385.729 87.6121 386.014 90.9819 386.275 93.588C386.406 94.8919 386.53 96.006 386.622 96.7944C386.668 97.1886 386.706 97.5015 386.733 97.7159C386.746 97.8231 386.756 97.9057 386.763 97.9616L386.771 98.0251L386.773 98.0413L386.774 98.0455L386.774 98.0465L386.774 98.0468C386.774 98.0469 386.774 98.0469 387.152 97.9984L386.774 98.0469L386.817 98.3796H387.152Z" fill="#E1E3EB" stroke="#ABAEBF" stroke-width="0.762396"/>
<path d="M408.388 109.764L419.539 110.129L419.95 110.142L419.933 109.732L419.552 109.748C419.933 109.732 419.933 109.732 419.933 109.731L419.933 109.731L419.932 109.728L419.932 109.717L419.93 109.672C419.929 109.632 419.926 109.573 419.924 109.495C419.919 109.339 419.912 109.111 419.905 108.819C419.892 108.236 419.879 107.403 419.883 106.402C419.891 104.399 419.965 101.731 420.227 99.0594C420.49 96.3819 420.939 93.7284 421.688 91.7427C422.062 90.7494 422.502 89.948 423.012 89.3947C423.514 88.8495 424.07 88.5568 424.701 88.5355C425.892 88.5367 426.817 88.8976 427.562 89.5575C428.317 90.227 428.911 91.2266 429.385 92.5425C430.336 95.1842 430.761 98.9654 431.141 103.519C431.26 104.943 431.392 106.306 431.518 107.601C431.795 110.462 432.041 112.992 432.041 115.128C432.041 118.251 431.509 120.326 429.982 121.341C429.196 121.865 427.98 122.244 426.488 122.511C425.006 122.776 423.294 122.923 421.548 123.005C419.802 123.088 418.031 123.105 416.432 123.114C416.208 123.115 415.988 123.116 415.771 123.118C414.443 123.124 413.256 123.13 412.351 123.171L412.349 123.171L409.126 123.34L408.388 109.764Z" fill="#E1E3EB" stroke="#ABAEBF" stroke-width="0.762396"/>
<path d="M399.288 52.9473C392.462 52.9473 393.599 60.7082 393.789 77.1764C393.789 83.2337 393.41 93.2661 393.031 103.488V97.9984H387.152C387.152 97.9984 386.204 90.616 386.014 84.5588C386.204 82.2873 384.308 80.2051 382.032 80.0158C379.757 79.8265 377.86 81.3408 377.481 83.6123C376.723 88.3446 377.291 95.3483 376.912 101.973C376.533 106.895 378.619 108.22 380.705 109.166C382.222 109.924 388.669 109.924 392.651 109.924C391.893 126.013 391.134 141.346 391.514 142.292C392.651 144.564 406.684 147.403 408.39 141.914C408.959 140.21 406.305 66.9547 405.736 62.2225C405.167 57.4902 406.115 53.1366 399.288 52.9473Z" stroke="#ABAEBF" stroke-width="1.38756" stroke-linecap="round" stroke-linejoin="round"/>
<path d="M431.524 103.487C430.766 94.4009 429.818 88.1543 424.698 88.1543C418.629 88.3436 420.146 109.923 420.146 109.923L408.055 109.248L408.769 123.741L412.372 123.552C416.544 123.362 426.783 123.93 430.197 121.659C433.61 119.387 432.283 112.573 431.524 103.487Z" stroke="#ABAEBF" stroke-width="1.38756" stroke-linecap="round" stroke-linejoin="round"/>
<path d="M284.226 159.711L168.742 157.629L152.055 157.251C152.055 157.251 181.447 130.75 219.183 130.75C224.493 130.75 229.613 131.318 234.733 132.454C264.315 138.511 284.226 159.711 284.226 159.711Z" fill="#F5F6FA"/>
<path d="M286.5 160.473L171.016 158.39C178.79 150.63 204.011 133.215 236.627 133.215H237.006C266.589 139.272 286.5 160.473 286.5 160.473Z" fill="#EBEDF5"/>
<path d="M320.045 157.556C320.045 157.556 303.737 141.845 283.826 142.791C263.915 143.738 254.055 154.338 254.055 154.338" fill="#EBEDF5"/>
<path d="M152.242 157.251C152.242 157.251 181.635 131.508 219.371 131.508C257.107 131.508 284.224 159.523 284.224 159.523" stroke="#CED0DB" stroke-width="1.41806" stroke-miterlimit="10" stroke-linecap="round"/>
<path d="M218.055 152.818C221.847 148.843 227.157 146.572 232.656 146.761C238.345 146.761 243.844 149.222 247.637 153.575" stroke="#CED0DB" stroke-width="1.41806" stroke-miterlimit="10" stroke-linecap="round"/>
<path d="M418.055 148.818C421.847 144.843 427.157 142.572 432.656 142.761C438.345 142.761 443.844 145.222 447.637 149.575" stroke="#CED0DB" stroke-width="1.41806" stroke-miterlimit="10" stroke-linecap="round"/>
<path d="M238.148 159.635C241.941 155.66 247.061 153.388 252.56 153.577C258.249 153.577 263.559 155.849 267.541 159.635" stroke="#CED0DB" stroke-width="1.41806" stroke-miterlimit="10" stroke-linecap="round"/>
<path d="M438.156 155.631C441.949 151.656 447.069 149.384 452.568 149.573C458.257 149.573 463.567 151.845 467.549 155.631" stroke="#CED0DB" stroke-width="1.41806" stroke-miterlimit="10" stroke-linecap="round"/>
</svg>
