<svg aria-hidden="true" style="position: absolute; width: 0; height: 0; overflow: hidden;" version="1.1" xmlns="http://www.w3.org/2000/svg" xmlns:xlink="http://www.w3.org/1999/xlink">
  <defs>
    <symbol id="icon-trash" viewBox="0 0 32 32">
      <path stroke-linejoin="round" stroke-linecap="round" stroke-miterlimit="4" stroke-width="3.6923" d="M28 7.973c-4.44-0.44-8.907-0.667-13.36-0.667-2.64 0-5.28 0.133-7.92 0.4l-2.72 0.267M11.333 6.627l0.293-1.747c0.213-1.267 0.373-2.213 2.627-2.213h3.493c2.253 0 2.427 1 2.627 2.227l0.293 1.733M25.133 12.187l-0.867 13.427c-0.147 2.093-0.267 3.72-3.987 3.72h-8.56c-3.72 0-3.84-1.627-3.987-3.72l-0.867-13.427M13.773 22h4.44M12.667 16.667h6.667"></path>
    </symbol>
    <symbol id="icon-course-bin" viewBox="0 0 32 32">
      <path d="M25 32c0.833 0 1.542-0.292 2.125-0.875s0.875-1.292 0.875-2.125v-23h1.625c0.083 0 0.167-0.042 0.25-0.125s0.125-0.167 0.125-0.25v-0.125c0-0.417-0.146-0.771-0.438-1.063s-0.646-0.438-1.063-0.438h-5.5l-2.125-2.813c-0.583-0.792-1.375-1.188-2.375-1.188h-5c-1 0-1.792 0.396-2.375 1.188l-2.125 2.813h-5.5c-0.417 0-0.771 0.146-1.063 0.438s-0.438 0.646-0.438 1.063v0.125c0 0.083 0.042 0.167 0.125 0.25s0.167 0.125 0.25 0.125h1.625v23c0 0.833 0.292 1.542 0.875 2.125s1.292 0.875 2.125 0.875h18zM20.5 4h-9l1.188-1.625c0.208-0.25 0.479-0.375 0.813-0.375h5c0.333 0 0.604 0.125 0.813 0.375l1.187 1.625zM25 30h-18c-0.292 0-0.531-0.094-0.719-0.281s-0.281-0.427-0.281-0.719v-23h20v23c0 0.292-0.094 0.531-0.281 0.719s-0.427 0.281-0.719 0.281zM16.25 27c0.208 0 0.385-0.073 0.531-0.219s0.219-0.323 0.219-0.531v-16.5c0-0.208-0.073-0.385-0.219-0.531s-0.323-0.219-0.531-0.219h-0.5c-0.208 0-0.385 0.073-0.531 0.219s-0.219 0.323-0.219 0.531v16.5c0 0.208 0.073 0.385 0.219 0.531s0.323 0.219 0.531 0.219h0.5zM11.25 27c0.208 0 0.385-0.073 0.531-0.219s0.219-0.323 0.219-0.531v-16.5c0-0.208-0.073-0.385-0.219-0.531s-0.323-0.219-0.531-0.219h-0.5c-0.208 0-0.385 0.073-0.531 0.219s-0.219 0.323-0.219 0.531v16.5c0 0.208 0.073 0.385 0.219 0.531s0.323 0.219 0.531 0.219h0.5zM21.25 27c0.208 0 0.385-0.073 0.531-0.219s0.219-0.323 0.219-0.531v-16.5c0-0.208-0.073-0.385-0.219-0.531s-0.323-0.219-0.531-0.219h-0.5c-0.208 0-0.385 0.073-0.531 0.219s-0.219 0.323-0.219 0.531v16.5c0 0.208 0.073 0.385 0.219 0.531s0.323 0.219 0.531 0.219h0.5z"></path>
    </symbol>
    <symbol id="icon-add" viewBox="0 0 32 32">
      <path stroke-linejoin="round" stroke-linecap="round" stroke-miterlimit="4" stroke-width="3.6923" d="M8 16h16M16 24v-16"></path>
    </symbol>
    <symbol id="icon-edit" viewBox="0 0 32 32">
      <path d="M1.666 31.991l7.136-0.793 22.026-22.026c1.562-1.562 1.562-4.095-0-5.657l-2.343-2.343c-1.562-1.562-4.095-1.562-5.657 0l-22.026 22.026-0.793 7.136c-0.106 0.955 0.701 1.763 1.657 1.657zM26.293 10.879l-5.171-5.171 3.121-3.121c0.782-0.782 2.047-0.782 2.828 0l2.343 2.343c0.782 0.782 0.782 2.047 0 2.828l-3.121 3.121zM10.875 26.296v-2.172h-3v-3h-2.172l14.004-14.004 5.172 5.171-14.004 14.004zM4.197 29.697l-1.894-1.894 0.41-3.687 1.241-1.241h2.172v3h3v2.172l-1.241 1.241-3.687 0.41z"></path>
    </symbol>
    <symbol id="icon-bin-2" viewBox="0 0 32 32">
      <path stroke-linejoin="round" stroke-linecap="round" stroke-miterlimit="4" stroke-width="3.6923" d="M28 7.973c-4.44-0.44-8.907-0.667-13.36-0.667-2.64 0-5.28 0.133-7.92 0.4l-2.72 0.267M11.333 6.627l0.293-1.747c0.213-1.267 0.373-2.213 2.627-2.213h3.493c2.253 0 2.427 1 2.627 2.227l0.293 1.733M25.133 12.187l-0.867 13.427c-0.147 2.093-0.267 3.72-3.987 3.72h-8.56c-3.72 0-3.84-1.627-3.987-3.72l-0.867-13.427M13.773 22h4.44M12.667 16.667h6.667"></path>
    </symbol>
    <symbol id="icon-x" viewBox="0 0 24 24">
      <path d="M5.293 6.707l5.293 5.293-5.293 5.293c-0.391 0.391-0.391 1.024 0 1.414s1.024 0.391 1.414 0l5.293-5.293 5.293 5.293c0.391 0.391 1.024 0.391 1.414 0s0.391-1.024 0-1.414l-5.293-5.293 5.293-5.293c0.391-0.391 0.391-1.024 0-1.414s-1.024-0.391-1.414 0l-5.293 5.293-5.293-5.293c-0.391-0.391-1.024-0.391-1.414 0s-0.391 1.024 0 1.414z"></path>
    </symbol>
  </defs>
</svg>
